<svg preserveAspectRatio="none" width="100%" height="100%" overflow="visible" style="display: block;" viewBox="0 0 54.4583 56" fill="none" xmlns="http://www.w3.org/2000/svg">
<path id="Vector" d="M17.2499 39.2C18.9313 49.0854 22.7635 56 27.2291 56C31.6947 56 35.5269 49.0854 37.2083 39.2H17.2499ZM53.2078 19.6H40.3432C40.6765 22.3869 40.8437 25.1922 40.8437 28C40.8437 30.8078 40.6765 33.6132 40.3432 36.4H53.2078C54.8751 30.9313 54.8751 25.0687 53.2078 19.6ZM52.1775 16.8C50.5122 12.8941 48.0022 9.43051 44.8384 6.67296C41.6747 3.91541 37.9408 1.93662 33.9209 0.88732C37.1903 5.59045 39.2611 11.0615 39.9435 16.8H52.1775ZM16.3375 28C16.3343 30.8078 16.5013 33.6134 16.8377 36.4H37.6206C37.9568 33.6134 38.124 30.8078 38.1207 28C38.124 25.1922 37.9568 22.3866 37.6206 19.6H16.8377C16.5013 22.3866 16.3343 25.1922 16.3375 28ZM33.9209 55.1127C37.9408 54.0632 41.6747 52.0845 44.8384 49.327C48.0022 46.5696 50.5122 43.106 52.1775 39.2H39.9435C39.2611 44.9386 37.1903 50.4095 33.9209 55.1127ZM13.6146 28C13.6145 25.1922 13.7817 22.3869 14.115 19.6H1.25037C-0.416789 25.0687 -0.416789 30.9313 1.25037 36.4H14.115C13.7817 33.6132 13.6145 30.8078 13.6146 28ZM2.28072 39.2C3.94594 43.106 6.456 46.5696 9.61972 49.327C12.7835 52.0845 16.5174 54.0632 20.5373 55.1127C17.2678 50.4095 15.1971 44.9386 14.5147 39.2H2.28072ZM20.5373 0.88732C16.5175 1.93676 12.7836 3.91558 9.61986 6.67313C6.45616 9.43068 3.94605 12.8942 2.28072 16.8H14.5147C15.1971 11.0615 17.2678 5.59045 20.5373 0.88732ZM37.2083 16.8C35.5269 6.916 31.6947 0 27.2291 0C22.7635 0 18.9313 6.916 17.2499 16.8H37.2083Z" fill="var(--fill-0, #F97C94)"/>
</svg>
