<svg preserveAspectRatio="xMinYMin meet" width="89" height="56" viewBox="0 0 89 55.8155" fill="none" xmlns="http://www.w3.org/2000/svg">
<g id="Meridian Logo Small">
<path id="M" d="M10.8248 34.6053L9.13341 16.8121L8.72748 9.77599L3.99164 44.8889L5.07412 52.8722L5.00646 53.2781H0L0.0676549 52.8722L1.89434 44.8889L6.69783 8.76117L6.49487 2.94285L6.56252 2.53692H13.8693L15.1547 16.3385L15.6283 23.3746L17.9962 16.3385L23.138 2.53692H30.6477L30.58 2.94285L29.0239 8.89648L23.8145 47.7304V52.8722L23.7469 53.2781H15.7636L15.8312 52.8722L17.1167 47.7304L22.1908 9.84365L19.7552 16.8798L13.125 34.6053H10.8248Z" fill="var(--fill-0, #61E26B)"/>
<g id="Earth">
<path id="Vector" d="M51.3094 39.0709C52.9853 48.9237 56.8049 55.8155 61.2557 55.8155C65.7066 55.8155 69.5261 48.9237 71.202 39.0709H51.3094ZM87.1488 19.5355H74.3265C74.6587 22.3132 74.8254 25.1093 74.8254 27.9078C74.8254 30.7064 74.6587 33.5025 74.3265 36.2801H87.1488C88.8105 30.8295 88.8105 24.9862 87.1488 19.5355ZM86.1218 16.7448C84.462 12.8518 81.9603 9.3996 78.807 6.65114C75.6536 3.90268 71.932 1.93042 67.9255 0.884584C71.1841 5.5722 73.248 11.0252 73.9281 16.7448H86.1218ZM50.4 27.9078C50.3968 30.7064 50.5633 33.5028 50.8985 36.2801H71.6129C71.948 33.5028 72.1147 30.7064 72.1114 27.9078C72.1147 25.1093 71.948 22.3129 71.6129 19.5355H50.8985C50.5633 22.3129 50.3968 25.1093 50.4 27.9078ZM67.9255 54.9311C71.932 53.8851 75.6536 51.9129 78.807 49.1645C81.9603 46.4162 84.462 42.964 86.1218 39.0709H73.9281C73.248 44.7906 71.1841 50.2434 67.9255 54.9311ZM47.6861 27.9078C47.686 25.1093 47.8526 22.3132 48.1849 19.5355H35.3627C33.701 24.9862 33.701 30.8295 35.3627 36.2801H48.1849C47.8526 33.5025 47.686 30.7064 47.6861 27.9078ZM36.3896 39.0709C38.0493 42.964 40.5511 46.4162 43.7044 49.1645C46.8577 51.9129 50.5794 53.8851 54.586 54.9311C51.3272 50.2434 49.2634 44.7906 48.5833 39.0709H36.3896ZM54.586 0.884584C50.5794 1.93056 46.8578 3.90285 43.7045 6.65131C40.5513 9.39976 38.0495 12.8519 36.3896 16.7448H48.5833C49.2634 11.0252 51.3272 5.5722 54.586 0.884584ZM71.202 16.7448C69.5261 6.89338 65.7066 0.000190973 61.2557 0.000190973C56.8049 0.000190973 52.9853 6.89338 51.3094 16.7448H71.202Z" fill="var(--fill-0, #61E26B)"/>
</g>
</g>
</svg>
